<svg width="40" height="40" viewBox="0 0 40 40" fill="none" xmlns="http://www.w3.org/2000/svg">
<circle cx="20" cy="20" r="20" fill="#FEE761"/>
<path d="M9.08794 24.028C9.07245 24.0078 9.05825 23.9863 9.04668 23.9637C8.63363 23.1543 9.22052 22.1846 10.1382 22.1846H10.8875C11.142 22.1846 11.3866 22.2837 11.5694 22.4609L15.3855 26.1614C18.0307 28.7265 22.2303 28.7422 24.8947 26.1971L28.8114 22.4558C28.9937 22.2817 29.236 22.1846 29.488 22.1846H29.9725C30.8948 22.1846 31.4813 23.163 31.0594 23.9729C31.0475 23.9955 31.0331 24.0169 31.0174 24.0371L25.1105 31.5956C23.5378 33.6359 22.1182 34.5944 19.9963 34.5944C17.8564 34.5944 16.7658 33.6359 14.8578 31.5518L9.08794 24.028Z" fill="#2D5D5E"/>
<path d="M12.2861 17.5518L11.9697 18.7334L11.6523 19.917L4.96094 18.124L5.59668 15.7588L12.2861 17.5518ZM35.001 17.5068L28.7666 19.2979L28.4277 18.1211L28.0898 16.9443L34.3271 15.1514L35.001 17.5068ZM30.9766 10.1934L26.0791 15.0908L24.3477 13.3604L29.2451 8.46191L30.9766 10.1934ZM16.2842 12.748L14.5527 14.4795L9.65527 9.58203L11.3867 7.85059L16.2842 12.748ZM21.54 11.9678H19.0918V5.04297H21.54V11.9678Z" fill="#2D5D5E"/>
</svg>
