<svg width="103" height="22" viewBox="0 0 103 22" fill="none" xmlns="http://www.w3.org/2000/svg">
<path d="M95.9453 11.3906L92.9062 11.0703C93.0208 10.5391 93.1849 10.1224 93.3984 9.82031C93.6172 9.51302 93.9297 9.2474 94.3359 9.02344C94.6276 8.86198 95.0286 8.73698 95.5391 8.64844C96.0495 8.5599 96.6016 8.51562 97.1953 8.51562C98.1484 8.51562 98.9141 8.57031 99.4922 8.67969C100.07 8.78385 100.552 9.00521 100.938 9.34375C101.208 9.57812 101.422 9.91146 101.578 10.3438C101.734 10.7708 101.812 11.1797 101.812 11.5703V15.2344C101.812 15.625 101.836 15.9323 101.883 16.1562C101.935 16.375 102.044 16.6562 102.211 17H99.2266C99.1068 16.7865 99.0286 16.625 98.9922 16.5156C98.9557 16.401 98.9193 16.224 98.8828 15.9844C98.4661 16.3854 98.0521 16.6719 97.6406 16.8438C97.0781 17.0729 96.4245 17.1875 95.6797 17.1875C94.6901 17.1875 93.9375 16.9583 93.4219 16.5C92.9115 16.0417 92.6562 15.4766 92.6562 14.8047C92.6562 14.1745 92.8411 13.6562 93.2109 13.25C93.5807 12.8438 94.263 12.5417 95.2578 12.3438C96.4505 12.1042 97.224 11.9375 97.5781 11.8438C97.9323 11.7448 98.3073 11.6172 98.7031 11.4609C98.7031 11.0703 98.6224 10.7969 98.4609 10.6406C98.2995 10.4844 98.0156 10.4062 97.6094 10.4062C97.0885 10.4062 96.6979 10.4896 96.4375 10.6562C96.2344 10.7865 96.0703 11.0312 95.9453 11.3906ZM98.7031 13.0625C98.2656 13.2188 97.8099 13.3568 97.3359 13.4766C96.6901 13.6484 96.2812 13.8177 96.1094 13.9844C95.9323 14.1562 95.8438 14.3516 95.8438 14.5703C95.8438 14.8203 95.9297 15.026 96.1016 15.1875C96.2786 15.3438 96.5365 15.4219 96.875 15.4219C97.2292 15.4219 97.5573 15.3359 97.8594 15.1641C98.1667 14.9922 98.3828 14.7839 98.5078 14.5391C98.638 14.2891 98.7031 13.9661 98.7031 13.5703V13.0625Z" fill="#2D5D5E"/>
<path d="M91.5898 5.54688V17H88.6133V15.7734C88.1966 16.2943 87.8164 16.6458 87.4727 16.8281C87.0143 17.0677 86.5039 17.1875 85.9414 17.1875C84.8112 17.1875 83.9466 16.7578 83.3477 15.8984C82.7539 15.0391 82.457 13.9948 82.457 12.7656C82.457 11.3906 82.7852 10.3385 83.4414 9.60938C84.1029 8.88021 84.9414 8.51562 85.957 8.51562C86.4518 8.51562 86.8997 8.59896 87.3008 8.76562C87.707 8.93229 88.0664 9.18229 88.3789 9.51562V5.54688H91.5898ZM88.4023 12.8281C88.4023 12.1771 88.2643 11.6927 87.9883 11.375C87.7122 11.0521 87.3633 10.8906 86.9414 10.8906C86.5716 10.8906 86.2617 11.0443 86.0117 11.3516C85.7617 11.6589 85.6367 12.1745 85.6367 12.8984C85.6367 13.5755 85.7643 14.0729 86.0195 14.3906C86.2799 14.7031 86.6003 14.8594 86.9805 14.8594C87.3867 14.8594 87.7253 14.7005 87.9961 14.3828C88.2669 14.0651 88.4023 13.5469 88.4023 12.8281Z" fill="#2D5D5E"/>
<path d="M81.4043 17H78.4355V15.6562C77.9928 16.2083 77.5449 16.6016 77.0918 16.8359C76.6439 17.0703 76.0918 17.1875 75.4355 17.1875C74.5605 17.1875 73.873 16.9271 73.373 16.4062C72.8783 15.8802 72.6309 15.0729 72.6309 13.9844V8.70312H75.8262V13.2656C75.8262 13.7865 75.9225 14.1562 76.1152 14.375C76.3079 14.5938 76.5788 14.7031 76.9277 14.7031C77.3079 14.7031 77.6178 14.5573 77.8574 14.2656C78.1022 13.974 78.2246 13.4505 78.2246 12.6953V8.70312H81.4043V17Z" fill="#2D5D5E"/>
<path d="M62.4395 8.70312H65.7988L67.5098 14.2266L69.0957 8.70312H72.2285L68.9395 17.5703C68.5645 18.5807 68.1816 19.263 67.791 19.6172C67.2389 20.1172 66.3978 20.3672 65.2676 20.3672C64.8092 20.3672 64.1009 20.3047 63.1426 20.1797L62.8926 17.9609C63.3509 18.1068 63.8613 18.1797 64.4238 18.1797C64.7988 18.1797 65.1009 18.0938 65.3301 17.9219C65.5645 17.75 65.7624 17.4427 65.9238 17L62.4395 8.70312Z" fill="#2D5D5E"/>
<path d="M56.0684 11.3906L53.0293 11.0703C53.1439 10.5391 53.3079 10.1224 53.5215 9.82031C53.7402 9.51302 54.0527 9.2474 54.459 9.02344C54.7507 8.86198 55.1517 8.73698 55.6621 8.64844C56.1725 8.5599 56.7246 8.51562 57.3184 8.51562C58.2715 8.51562 59.0371 8.57031 59.6152 8.67969C60.1934 8.78385 60.6751 9.00521 61.0605 9.34375C61.3314 9.57812 61.5449 9.91146 61.7012 10.3438C61.8574 10.7708 61.9355 11.1797 61.9355 11.5703V15.2344C61.9355 15.625 61.959 15.9323 62.0059 16.1562C62.0579 16.375 62.1673 16.6562 62.334 17H59.3496C59.2298 16.7865 59.1517 16.625 59.1152 16.5156C59.0788 16.401 59.0423 16.224 59.0059 15.9844C58.5892 16.3854 58.1751 16.6719 57.7637 16.8438C57.2012 17.0729 56.5475 17.1875 55.8027 17.1875C54.8131 17.1875 54.0605 16.9583 53.5449 16.5C53.0345 16.0417 52.7793 15.4766 52.7793 14.8047C52.7793 14.1745 52.9642 13.6562 53.334 13.25C53.7038 12.8438 54.3861 12.5417 55.3809 12.3438C56.5736 12.1042 57.347 11.9375 57.7012 11.8438C58.0553 11.7448 58.4303 11.6172 58.8262 11.4609C58.8262 11.0703 58.7454 10.7969 58.584 10.6406C58.4225 10.4844 58.1387 10.4062 57.7324 10.4062C57.2116 10.4062 56.821 10.4896 56.5605 10.6562C56.3574 10.7865 56.1934 11.0312 56.0684 11.3906ZM58.8262 13.0625C58.3887 13.2188 57.9329 13.3568 57.459 13.4766C56.8131 13.6484 56.4043 13.8177 56.2324 13.9844C56.0553 14.1562 55.9668 14.3516 55.9668 14.5703C55.9668 14.8203 56.0527 15.026 56.2246 15.1875C56.4017 15.3438 56.6595 15.4219 56.998 15.4219C57.3522 15.4219 57.6803 15.3359 57.9824 15.1641C58.2897 14.9922 58.5059 14.7839 58.6309 14.5391C58.7611 14.2891 58.8262 13.9661 58.8262 13.5703V13.0625Z" fill="#2D5D5E"/>
<path d="M42.9785 8.70312H45.9395V10.0547C46.3822 9.5026 46.8301 9.10938 47.2832 8.875C47.7363 8.63542 48.2884 8.51562 48.9395 8.51562C49.8197 8.51562 50.5072 8.77865 51.002 9.30469C51.502 9.82552 51.752 10.6328 51.752 11.7266V17H48.5566V12.4375C48.5566 11.9167 48.4603 11.5495 48.2676 11.3359C48.0749 11.1172 47.804 11.0078 47.4551 11.0078C47.0697 11.0078 46.7572 11.1536 46.5176 11.4453C46.278 11.737 46.1582 12.2604 46.1582 13.0156V17H42.9785V8.70312Z" fill="#2D5D5E"/>
<path d="M41.9961 13.6406H35.6211C35.6784 14.151 35.8164 14.5312 36.0352 14.7812C36.3424 15.1406 36.7435 15.3203 37.2383 15.3203C37.5508 15.3203 37.8477 15.2422 38.1289 15.0859C38.3008 14.987 38.4857 14.8125 38.6836 14.5625L41.8164 14.8516C41.3372 15.6849 40.7591 16.2839 40.082 16.6484C39.4049 17.0078 38.4336 17.1875 37.168 17.1875C36.069 17.1875 35.2044 17.0339 34.5742 16.7266C33.944 16.4141 33.4206 15.9219 33.0039 15.25C32.5924 14.5729 32.3867 13.7786 32.3867 12.8672C32.3867 11.5703 32.8008 10.5208 33.6289 9.71875C34.4622 8.91667 35.6107 8.51562 37.0742 8.51562C38.2617 8.51562 39.1992 8.69531 39.8867 9.05469C40.5742 9.41406 41.0977 9.9349 41.457 10.6172C41.8164 11.2995 41.9961 12.1875 41.9961 13.2812V13.6406ZM38.7617 12.1172C38.6992 11.5026 38.5326 11.0625 38.2617 10.7969C37.9961 10.5312 37.6445 10.3984 37.207 10.3984C36.7018 10.3984 36.2982 10.599 35.9961 11C35.8034 11.25 35.681 11.6224 35.6289 12.1172H38.7617Z" fill="#2D5D5E"/>
<path d="M22.9453 8.70312H26.2578L27.8672 13.9609L29.5312 8.70312H32.7422L29.2188 17H26.3984L22.9453 8.70312Z" fill="#2D5D5E"/>
<path d="M2.72638 12.5954C2.42904 12.0532 2.82137 11.3906 3.43976 11.3906H3.93763C4.10679 11.3906 4.2693 11.4565 4.39074 11.5742L6.92657 14.0332C8.68432 15.7377 11.4749 15.7482 13.2454 14.057L15.8481 11.5708C15.9692 11.4552 16.1302 11.3906 16.2977 11.3906H16.6196C17.2411 11.3906 17.6331 12.0592 17.3296 12.6015L13.3888 19.6443C12.7003 20.8747 11.4004 21.6369 9.99043 21.6369C8.56851 21.6369 7.25961 20.8619 6.5759 19.6152L2.72638 12.5954Z" fill="#FAE880"/>
<path d="M4.86719 8.3125L4.65723 9.09766L4.44531 9.88379L0 8.69238L0.421875 7.12012L4.86719 8.3125ZM19.9609 8.28223L15.8184 9.47266L15.5928 8.69043L15.3691 7.90918L19.5137 6.7168L19.9609 8.28223ZM17.2871 3.42285L14.0322 6.67773L12.8818 5.52637L16.1367 2.27246L17.2871 3.42285ZM7.52344 5.12012L6.37305 6.27051L3.11914 3.01562L4.26953 1.86523L7.52344 5.12012ZM11.0166 4.60156H9.38965V0H11.0166V4.60156Z" fill="#FAE880"/>
</svg>
