<svg width="103" height="22" viewBox="0 0 103 22" fill="none" xmlns="http://www.w3.org/2000/svg">
<path d="M2.72638 12.5954C2.42904 12.0532 2.82137 11.3906 3.43976 11.3906H3.93763C4.10679 11.3906 4.2693 11.4565 4.39074 11.5742L6.92657 14.0332C8.68432 15.7377 11.4749 15.7482 13.2454 14.057L15.8481 11.5708C15.9692 11.4552 16.1302 11.3906 16.2977 11.3906H16.6196C17.2411 11.3906 17.6331 12.0592 17.3296 12.6015L13.3888 19.6443C12.7003 20.8747 11.4004 21.6369 9.99043 21.6369C8.56851 21.6369 7.25961 20.8619 6.5759 19.6152L2.72638 12.5954Z" fill="#FEE761"/>
<path d="M4.86719 8.3125L4.65723 9.09766L4.44531 9.88379L0 8.69238L0.421875 7.12012L4.86719 8.3125ZM19.9609 8.28223L15.8184 9.47266L15.5928 8.69043L15.3691 7.90918L19.5137 6.7168L19.9609 8.28223ZM17.2871 3.42285L14.0322 6.67773L12.8818 5.52637L16.1367 2.27246L17.2871 3.42285ZM7.52344 5.12012L6.37305 6.27051L3.11914 3.01562L4.26953 1.86523L7.52344 5.12012ZM11.0166 4.60156H9.38965V0H11.0166V4.60156Z" fill="#FEE761"/>
<path d="M26.164 6.82L27.158 13.092C27.1954 13.3067 27.228 13.5493 27.256 13.82C27.2934 14.0813 27.3214 14.338 27.34 14.59C27.3587 14.8327 27.3774 15.0893 27.396 15.36C27.4147 15.6213 27.4334 15.892 27.452 16.172C27.452 16.3027 27.452 16.4287 27.452 16.55V16.9H27.676C27.676 16.676 27.6807 16.424 27.69 16.144C27.7087 15.864 27.732 15.612 27.76 15.388C27.7787 15.1827 27.8067 14.9213 27.844 14.604C27.8814 14.2867 27.914 14.0207 27.942 13.806C27.9607 13.6847 27.9794 13.5633 27.998 13.442C28.0167 13.3207 28.0354 13.204 28.054 13.092L29.034 6.82H32.114L29.762 19H25.366L23.014 6.82H26.164ZM43.8675 12.868V13.89H35.3555C35.4115 14.17 35.5001 14.4313 35.6215 14.674C35.7521 14.9073 35.8968 15.108 36.0555 15.276C36.2328 15.4627 36.4195 15.6167 36.6155 15.738C36.8115 15.8593 37.0495 15.9527 37.3295 16.018C37.4508 16.0553 37.5768 16.0833 37.7075 16.102C37.8475 16.1207 37.9921 16.13 38.1415 16.13C38.5895 16.13 39.0001 16.0553 39.3735 15.906C39.7468 15.7567 40.0501 15.5467 40.2835 15.276C40.3395 15.2107 40.3908 15.1407 40.4375 15.066C40.4841 14.9913 40.5261 14.9167 40.5635 14.842H43.7695C43.6388 15.4207 43.4475 15.9247 43.1955 16.354C42.9435 16.7833 42.6635 17.1427 42.3555 17.432C42.0008 17.7867 41.5995 18.09 41.1515 18.342C40.7128 18.594 40.2321 18.79 39.7095 18.93C39.4575 18.9953 39.1961 19.0467 38.9255 19.084C38.6548 19.1213 38.3795 19.14 38.0995 19.14C37.3808 19.14 36.7275 19.0373 36.1395 18.832C35.5608 18.6173 35.0428 18.3327 34.5855 17.978C33.5868 17.2127 32.9008 16.1907 32.5275 14.912C32.3408 14.2773 32.2475 13.596 32.2475 12.868C32.2475 12.168 32.3455 11.496 32.5415 10.852C32.7375 10.208 33.0128 9.634 33.3675 9.13C33.7315 8.61667 34.1561 8.178 34.6415 7.814C35.1361 7.45 35.6775 7.17 36.2655 6.974C36.8628 6.778 37.4835 6.68 38.1275 6.68C38.7528 6.68 39.3641 6.78733 39.9615 7.002C40.5588 7.20733 41.0861 7.49667 41.5435 7.87C42.0195 8.262 42.4301 8.71 42.7755 9.214C43.1301 9.718 43.4008 10.2873 43.5875 10.922C43.7741 11.538 43.8675 12.1867 43.8675 12.868ZM35.4115 11.79H40.7735C40.6241 11.2953 40.3721 10.8707 40.0175 10.516C39.6721 10.1707 39.2661 9.928 38.7995 9.788C38.6781 9.76 38.5568 9.73667 38.4355 9.718C38.3141 9.69933 38.1881 9.69 38.0575 9.69C37.5815 9.69 37.1241 9.816 36.6855 10.068C36.5268 10.1613 36.3588 10.292 36.1815 10.46C36.0135 10.628 35.8595 10.838 35.7195 11.09C35.5888 11.3233 35.4861 11.5567 35.4115 11.79ZM44.9158 6.82H48.0658C48.0658 6.85733 48.0565 6.93667 48.0378 7.058C48.0192 7.17 47.9958 7.25867 47.9678 7.324C47.9305 7.42667 47.8932 7.52933 47.8558 7.632C47.8185 7.73467 47.7625 7.856 47.6878 7.996C47.6598 8.052 47.6318 8.108 47.6038 8.164C47.5758 8.21067 47.5432 8.262 47.5058 8.318L47.6738 8.458C47.8512 8.19667 48.0192 7.98667 48.1778 7.828C48.3365 7.66 48.5138 7.49667 48.7098 7.338C48.8872 7.198 49.0832 7.07667 49.2978 6.974C49.5125 6.87133 49.7225 6.79667 49.9278 6.75C50.0305 6.73133 50.1332 6.71733 50.2358 6.708C50.3478 6.68933 50.4598 6.68 50.5718 6.68C50.8518 6.68 51.1272 6.72667 51.3978 6.82C51.6778 6.904 51.9205 7.03467 52.1258 7.212C52.5365 7.58533 52.8072 8.108 52.9378 8.78C52.9658 8.948 52.9892 9.12533 53.0078 9.312C53.0265 9.49867 53.0358 9.69467 53.0358 9.9V19H49.8858V10.46C49.8858 10.348 49.8765 10.264 49.8578 10.208C49.8392 10.1427 49.8018 10.0587 49.7458 9.956C49.7085 9.9 49.6525 9.84867 49.5778 9.802C49.5032 9.75533 49.4378 9.72733 49.3818 9.718C49.2885 9.69933 49.2045 9.69 49.1298 9.69C49.0552 9.69 48.9852 9.69933 48.9198 9.718C48.8545 9.72733 48.7845 9.74133 48.7098 9.76C48.6258 9.77867 48.5558 9.80667 48.4998 9.844C48.4438 9.872 48.3692 9.90933 48.2758 9.956C48.2385 9.97467 48.2012 9.998 48.1638 10.026C48.1358 10.0447 48.1032 10.068 48.0658 10.096V19H44.9158V6.82ZM62.6914 19H59.5414C59.5414 18.944 59.5461 18.874 59.5554 18.79C59.5741 18.6967 59.6068 18.5847 59.6534 18.454C59.7001 18.3327 59.7374 18.23 59.7654 18.146C59.7934 18.062 59.8494 17.9453 59.9334 17.796C59.9614 17.7493 59.9894 17.7027 60.0174 17.656C60.0454 17.6 60.0734 17.5487 60.1014 17.502L59.9334 17.362C59.8308 17.5673 59.6954 17.7727 59.5274 17.978C59.3594 18.174 59.1868 18.3373 59.0094 18.468C58.8228 18.6173 58.6174 18.7433 58.3934 18.846C58.1694 18.9487 57.9408 19.0187 57.7074 19.056C57.5861 19.084 57.4601 19.1027 57.3294 19.112C57.1988 19.1307 57.0681 19.14 56.9374 19.14C55.1734 19.14 54.2914 17.9593 54.2914 15.598V10.18C54.2914 9.26533 54.4641 8.51867 54.8094 7.94C54.9681 7.66933 55.1594 7.44067 55.3834 7.254C55.6074 7.06733 55.8781 6.92267 56.1954 6.82C56.4754 6.72667 56.7834 6.68 57.1194 6.68C57.2688 6.68 57.4414 6.69867 57.6374 6.736C57.8428 6.764 58.0154 6.80133 58.1554 6.848C58.3608 6.94133 58.5194 7.02533 58.6314 7.1C58.7528 7.16533 58.9068 7.26333 59.0934 7.394C59.2428 7.51533 59.3921 7.66 59.5414 7.828V2.2H62.6914V19ZM59.6814 14.856V10.964C59.6814 10.656 59.6208 10.39 59.4994 10.166C59.4621 10.1007 59.3921 10.026 59.2894 9.942C59.1961 9.84867 59.0888 9.78333 58.9674 9.746C58.8461 9.70867 58.7108 9.69 58.5614 9.69C58.4308 9.69 58.3048 9.70867 58.1834 9.746C58.0621 9.774 57.9548 9.83 57.8614 9.914C57.7681 9.98867 57.6888 10.0727 57.6234 10.166C57.5674 10.25 57.5254 10.3713 57.4974 10.53C57.4601 10.6793 57.4414 10.824 57.4414 10.964V14.856C57.4414 15.164 57.5021 15.4253 57.6234 15.64C57.6608 15.7147 57.7261 15.7987 57.8194 15.892C57.9221 15.976 58.0388 16.0367 58.1694 16.074C58.2814 16.1113 58.4121 16.13 58.5614 16.13C58.6921 16.13 58.8181 16.116 58.9394 16.088C59.0608 16.0507 59.1728 15.99 59.2754 15.906C59.3594 15.8313 59.4294 15.752 59.4854 15.668C59.5508 15.5747 59.6021 15.4487 59.6394 15.29C59.6674 15.1407 59.6814 14.996 59.6814 14.856ZM69.9075 19.14C69.1981 19.14 68.5355 19.0327 67.9195 18.818C67.3035 18.594 66.7528 18.2953 66.2675 17.922C65.7635 17.5487 65.3201 17.11 64.9375 16.606C64.5641 16.102 64.2701 15.514 64.0555 14.842C63.8501 14.226 63.7475 13.568 63.7475 12.868C63.7475 12.196 63.8501 11.5473 64.0555 10.922C64.2608 10.2967 64.5501 9.72733 64.9235 9.214C65.3155 8.682 65.7681 8.22933 66.2815 7.856C66.8041 7.48267 67.3595 7.198 67.9475 7.002C68.2555 6.89933 68.5728 6.82 68.8995 6.764C69.2261 6.708 69.5621 6.68 69.9075 6.68C70.5701 6.68 71.2141 6.78733 71.8395 7.002C72.4741 7.21667 73.0435 7.506 73.5475 7.87C74.0421 8.24333 74.4808 8.69133 74.8635 9.214C75.2555 9.72733 75.5541 10.2967 75.7595 10.922C75.8528 11.23 75.9275 11.5473 75.9835 11.874C76.0395 12.2007 76.0675 12.532 76.0675 12.868C76.0675 13.428 75.9788 14.03 75.8015 14.674C75.6335 15.318 75.3255 15.9527 74.8775 16.578C74.5041 17.1007 74.0561 17.5533 73.5335 17.936C73.0108 18.3187 72.4508 18.6127 71.8535 18.818C71.5455 18.9207 71.2281 19 70.9015 19.056C70.5748 19.112 70.2435 19.14 69.9075 19.14ZM69.9215 16.13C70.2295 16.13 70.5375 16.0787 70.8455 15.976C71.1628 15.8733 71.4428 15.7193 71.6855 15.514C71.9935 15.2713 72.2315 15.01 72.3995 14.73C72.5768 14.4407 72.6981 14.1747 72.7635 13.932C72.8101 13.7733 72.8475 13.61 72.8755 13.442C72.9035 13.2647 72.9175 13.0873 72.9175 12.91C72.9175 12.546 72.8661 12.2053 72.7635 11.888C72.6608 11.5613 72.5208 11.2627 72.3435 10.992C72.1848 10.768 71.9841 10.5533 71.7415 10.348C71.4988 10.1333 71.2048 9.96533 70.8595 9.844C70.5515 9.74133 70.2388 9.69 69.9215 9.69C69.2495 9.69 68.6568 9.89067 68.1435 10.292C67.9008 10.4787 67.6815 10.712 67.4855 10.992C67.2895 11.2627 67.1448 11.5567 67.0515 11.874C67.0048 12.0327 66.9675 12.2007 66.9395 12.378C66.9115 12.5553 66.8975 12.7327 66.8975 12.91C66.8975 13.1993 66.9395 13.5073 67.0235 13.834C67.1075 14.1607 67.2615 14.4873 67.4855 14.814C67.6628 15.0753 67.8728 15.304 68.1155 15.5C68.3581 15.696 68.6428 15.85 68.9695 15.962C69.2775 16.074 69.5948 16.13 69.9215 16.13ZM77.1131 6.82H80.2631C80.2631 6.85733 80.2538 6.93667 80.2351 7.058C80.2164 7.17 80.1931 7.25867 80.1651 7.324C80.1278 7.42667 80.0904 7.52933 80.0531 7.632C80.0158 7.73467 79.9598 7.856 79.8851 7.996C79.8571 8.052 79.8291 8.108 79.8011 8.164C79.7731 8.21067 79.7404 8.262 79.7031 8.318L79.8711 8.458C80.0484 8.19667 80.2164 7.98667 80.3751 7.828C80.5338 7.66 80.7111 7.49667 80.9071 7.338C81.0844 7.198 81.2804 7.07667 81.4951 6.974C81.7098 6.87133 81.9198 6.79667 82.1251 6.75C82.2278 6.73133 82.3304 6.71733 82.4331 6.708C82.5451 6.68933 82.6571 6.68 82.7691 6.68C83.0491 6.68 83.3244 6.72667 83.5951 6.82C83.8751 6.904 84.1178 7.03467 84.3231 7.212C84.7338 7.58533 85.0044 8.108 85.1351 8.78C85.1631 8.948 85.1864 9.12533 85.2051 9.312C85.2238 9.49867 85.2331 9.69467 85.2331 9.9V19H82.0831V10.46C82.0831 10.348 82.0738 10.264 82.0551 10.208C82.0364 10.1427 81.9991 10.0587 81.9431 9.956C81.9058 9.9 81.8498 9.84867 81.7751 9.802C81.7004 9.75533 81.6351 9.72733 81.5791 9.718C81.4858 9.69933 81.4018 9.69 81.3271 9.69C81.2524 9.69 81.1824 9.69933 81.1171 9.718C81.0518 9.72733 80.9818 9.74133 80.9071 9.76C80.8231 9.77867 80.7531 9.80667 80.6971 9.844C80.6411 9.872 80.5664 9.90933 80.4731 9.956C80.4358 9.97467 80.3984 9.998 80.3611 10.026C80.3331 10.0447 80.3004 10.068 80.2631 10.096V19H77.1131V6.82ZM86.2787 15.836C86.2787 15.3507 86.344 14.9073 86.4747 14.506C86.6054 14.0953 86.8107 13.7267 87.0907 13.4C87.3707 13.0733 87.716 12.798 88.1267 12.574C88.5467 12.3407 89.0414 12.14 89.6107 11.972C89.9 11.888 90.208 11.818 90.5347 11.762C90.8614 11.6967 91.2067 11.6407 91.5707 11.594V10.67C91.5707 10.5767 91.552 10.474 91.5147 10.362C91.4867 10.2407 91.4494 10.1473 91.4027 10.082C91.3467 10.0073 91.286 9.942 91.2207 9.886C91.1554 9.82067 91.0667 9.76933 90.9547 9.732C90.8427 9.704 90.74 9.69 90.6467 9.69C90.5627 9.69 90.46 9.704 90.3387 9.732C90.2267 9.76 90.138 9.802 90.0727 9.858C89.9234 9.97 89.8207 10.124 89.7647 10.32C89.7274 10.432 89.7087 10.5347 89.7087 10.628V10.95H86.6287V10.124C86.6287 9.71333 86.6847 9.32133 86.7967 8.948C86.918 8.57467 87.0907 8.248 87.3147 7.968C87.772 7.41733 88.43 7.03467 89.2887 6.82C89.494 6.77333 89.7134 6.74067 89.9467 6.722C90.1894 6.694 90.4367 6.68 90.6887 6.68C91.9674 6.68 92.9614 6.98333 93.6707 7.59C94.3707 8.19667 94.7207 9.04133 94.7207 10.124V19H91.5707C91.5707 18.916 91.58 18.818 91.5987 18.706C91.6174 18.5847 91.6407 18.482 91.6687 18.398C91.706 18.2953 91.7434 18.1973 91.7807 18.104C91.8274 18.0013 91.8787 17.894 91.9347 17.782C91.9814 17.698 92.0467 17.6047 92.1307 17.502L91.9627 17.362C91.8134 17.6233 91.6594 17.8427 91.5007 18.02C91.3514 18.188 91.188 18.342 91.0107 18.482C90.8427 18.622 90.656 18.7433 90.4507 18.846C90.2547 18.9393 90.0307 19.0093 89.7787 19.056C89.6667 19.084 89.55 19.1027 89.4287 19.112C89.3167 19.1307 89.2 19.14 89.0787 19.14C88.7707 19.14 88.4674 19.0933 88.1687 19C87.8794 18.916 87.604 18.7667 87.3427 18.552C87.1094 18.3747 86.9134 18.146 86.7547 17.866C86.596 17.5767 86.4794 17.2687 86.4047 16.942C86.358 16.774 86.3254 16.5967 86.3067 16.41C86.288 16.2233 86.2787 16.032 86.2787 15.836ZM89.4987 15.36C89.4987 15.5 89.5127 15.6307 89.5407 15.752C89.578 15.864 89.62 15.948 89.6667 16.004C89.788 16.1907 89.9514 16.3073 90.1567 16.354C90.2687 16.3913 90.376 16.41 90.4787 16.41C90.796 16.41 91.16 16.2933 91.5707 16.06V13.47C91.2907 13.5633 91.0387 13.6567 90.8147 13.75C90.5907 13.8433 90.3947 13.9553 90.2267 14.086C90.0774 14.198 89.942 14.3193 89.8207 14.45C89.7087 14.5807 89.6294 14.7253 89.5827 14.884C89.5267 15.052 89.4987 15.2107 89.4987 15.36ZM96.117 6.82H99.267C99.267 6.92267 99.2577 7.016 99.239 7.1C99.2203 7.17467 99.1877 7.27733 99.141 7.408C99.0943 7.548 99.0663 7.632 99.057 7.66C99.0477 7.688 99.029 7.72067 99.001 7.758C98.9823 7.786 98.9403 7.87933 98.875 8.038C98.8283 8.14067 98.7723 8.234 98.707 8.318L98.875 8.458C99.0243 8.234 99.169 8.038 99.309 7.87C99.4583 7.702 99.645 7.53867 99.869 7.38C100.242 7.11867 100.69 6.95067 101.213 6.876C101.456 6.83867 101.736 6.82 102.053 6.82H102.599L102.459 9.83H101.577C100.84 9.83 100.275 9.94667 99.883 10.18C99.4723 10.432 99.267 10.7773 99.267 11.216V19H96.117V6.82Z" fill="#2D5D5E"/>
</svg>
