<svg width="86" height="22" viewBox="0 0 86 22" fill="none" xmlns="http://www.w3.org/2000/svg">
<path d="M2.74964 12.6258C2.73416 12.6056 2.71991 12.5842 2.70869 12.5614C2.44549 12.0259 2.83426 11.3906 3.43976 11.3906H3.93763C4.10679 11.3906 4.2693 11.4565 4.39074 11.5742L6.92657 14.0332C8.68432 15.7377 11.4749 15.7482 13.2454 14.057L15.8481 11.5708C15.9692 11.4552 16.1302 11.3906 16.2977 11.3906H16.6196C17.2281 11.3906 17.6167 12.0316 17.3477 12.5675C17.3362 12.5903 17.3217 12.6116 17.306 12.6318L13.3888 17.6443C12.3438 19 11.4004 19.6369 9.99044 19.6369C8.56851 19.6369 7.84375 19 6.5759 17.6152L2.74964 12.6258Z" fill="#FEE761"/>
<path d="M4.86719 8.3125L4.65723 9.09766L4.44531 9.88379L0 8.69238L0.421875 7.12012L4.86719 8.3125ZM19.9609 8.28223L15.8184 9.47266L15.5928 8.69043L15.3691 7.90918L19.5137 6.7168L19.9609 8.28223ZM17.2871 3.42285L14.0322 6.67773L12.8818 5.52637L16.1367 2.27246L17.2871 3.42285ZM7.52344 5.12012L6.37305 6.27051L3.11914 3.01562L4.26953 1.86523L7.52344 5.12012ZM11.0166 4.60156H9.38965V0H11.0166V4.60156Z" fill="#FEE761"/>
<path d="M27.0673 16L24.0293 8.72H26.2693L27.7253 12.878C27.8559 13.2513 27.9586 13.6387 28.0333 14.04C28.1079 13.6387 28.2106 13.2513 28.3413 12.878L29.7973 8.72H31.9953L28.9713 16H27.0673ZM35.3673 16.182C34.6206 16.182 33.9626 16.0093 33.3933 15.664C32.824 15.3187 32.3806 14.8613 32.0633 14.292C31.7553 13.7133 31.6013 13.074 31.6013 12.374C31.6013 11.674 31.7646 11.0347 32.0913 10.456C32.418 9.868 32.8613 9.40133 33.4213 9.056C33.9906 8.71067 34.6393 8.538 35.3673 8.538C36.0953 8.538 36.7346 8.71067 37.2853 9.056C37.8453 9.40133 38.2793 9.868 38.5873 10.456C38.9046 11.0347 39.0633 11.674 39.0633 12.374C39.0633 12.4767 39.0586 12.584 39.0493 12.696C39.04 12.808 39.026 12.9247 39.0073 13.046H33.5613C33.664 13.4753 33.8693 13.8253 34.1773 14.096C34.4946 14.3667 34.8913 14.502 35.3673 14.502C35.778 14.502 36.1326 14.4087 36.4313 14.222C36.7393 14.0353 36.9773 13.802 37.1453 13.522L38.6153 14.628C38.326 15.0853 37.892 15.4587 37.3133 15.748C36.7346 16.0373 36.086 16.182 35.3673 16.182ZM35.3393 10.162C34.8913 10.162 34.5086 10.2973 34.1913 10.568C33.874 10.8387 33.664 11.1933 33.5613 11.632H37.1593C37.0566 11.2307 36.842 10.8853 36.5153 10.596C36.198 10.3067 35.806 10.162 35.3393 10.162ZM39.893 16V8.72H41.755V9.784C42.1377 8.96267 42.8797 8.552 43.981 8.552C44.5037 8.552 44.975 8.67333 45.395 8.916C45.815 9.15867 46.1463 9.504 46.389 9.952C46.6317 10.4 46.753 10.932 46.753 11.548V16H44.863V12.01C44.863 11.3753 44.7183 10.918 44.429 10.638C44.1397 10.3487 43.7617 10.204 43.295 10.204C42.8937 10.204 42.539 10.3487 42.231 10.638C41.9323 10.918 41.783 11.3753 41.783 12.01V16H39.893ZM51.127 16.182C50.4644 16.182 49.8577 16.014 49.307 15.678C48.7657 15.3327 48.3317 14.8753 48.005 14.306C47.6877 13.7273 47.529 13.088 47.529 12.388C47.529 11.8653 47.6224 11.3753 47.809 10.918C47.9957 10.4513 48.2524 10.0453 48.579 9.7C48.9057 9.34533 49.2837 9.07 49.713 8.874C50.1517 8.66867 50.623 8.566 51.127 8.566C51.7524 8.566 52.2424 8.68267 52.597 8.916C52.9517 9.14933 53.227 9.45733 53.423 9.84V5.78H55.313V16H53.479V14.81C53.283 15.2207 53.003 15.552 52.639 15.804C52.2844 16.056 51.7804 16.182 51.127 16.182ZM51.435 14.474C51.855 14.474 52.2144 14.3807 52.513 14.194C52.821 13.998 53.059 13.7413 53.227 13.424C53.395 13.1067 53.479 12.7613 53.479 12.388C53.479 12.0053 53.395 11.6553 53.227 11.338C53.059 11.0207 52.821 10.764 52.513 10.568C52.2144 10.372 51.855 10.274 51.435 10.274C51.0337 10.274 50.679 10.372 50.371 10.568C50.0724 10.7547 49.839 11.0067 49.671 11.324C49.503 11.6413 49.419 11.9913 49.419 12.374C49.419 12.738 49.503 13.0833 49.671 13.41C49.839 13.7273 50.0724 13.984 50.371 14.18C50.679 14.376 51.0337 14.474 51.435 14.474ZM60.034 16.182C59.2873 16.182 58.62 16.0093 58.032 15.664C57.444 15.3187 56.982 14.8613 56.646 14.292C56.3193 13.7133 56.156 13.074 56.156 12.374C56.156 11.674 56.3193 11.0347 56.646 10.456C56.982 9.87733 57.444 9.41533 58.032 9.07C58.62 8.72467 59.2873 8.552 60.034 8.552C60.79 8.552 61.4573 8.72467 62.036 9.07C62.624 9.41533 63.0813 9.87733 63.408 10.456C63.744 11.0347 63.912 11.674 63.912 12.374C63.912 13.074 63.744 13.7133 63.408 14.292C63.0813 14.8613 62.624 15.3187 62.036 15.664C61.4573 16.0093 60.79 16.182 60.034 16.182ZM60.034 14.46C60.4353 14.46 60.7853 14.3667 61.084 14.18C61.3826 13.984 61.6113 13.7273 61.77 13.41C61.938 13.0927 62.022 12.7473 62.022 12.374C62.022 11.9913 61.938 11.6413 61.77 11.324C61.6113 11.0067 61.3826 10.7547 61.084 10.568C60.7853 10.372 60.4353 10.274 60.034 10.274C59.6326 10.274 59.2826 10.372 58.984 10.568C58.6853 10.7547 58.452 11.0067 58.284 11.324C58.1253 11.6413 58.046 11.9913 58.046 12.374C58.046 12.7473 58.1253 13.0927 58.284 13.41C58.452 13.7273 58.6853 13.984 58.984 14.18C59.2826 14.3667 59.6326 14.46 60.034 14.46ZM64.7485 16V8.72H66.6105V9.784C66.9931 8.96267 67.7351 8.552 68.8365 8.552C69.3591 8.552 69.8305 8.67333 70.2505 8.916C70.6705 9.15867 71.0018 9.504 71.2445 9.952C71.4871 10.4 71.6085 10.932 71.6085 11.548V16H69.7185V12.01C69.7185 11.3753 69.5738 10.918 69.2845 10.638C68.9951 10.3487 68.6171 10.204 68.1505 10.204C67.7491 10.204 67.3945 10.3487 67.0865 10.638C66.7878 10.918 66.6385 11.3753 66.6385 12.01V16H64.7485ZM75.9825 16.182C75.3198 16.182 74.7132 16.014 74.1625 15.678C73.6212 15.3327 73.1872 14.8753 72.8605 14.306C72.5432 13.7273 72.3845 13.088 72.3845 12.388C72.3845 11.8653 72.4778 11.3753 72.6645 10.918C72.8512 10.4513 73.1078 10.0453 73.4345 9.7C73.7612 9.34533 74.1392 9.07 74.5685 8.874C75.0072 8.66867 75.4785 8.566 75.9825 8.566C76.6172 8.566 77.1118 8.68733 77.4665 8.93C77.8212 9.16333 78.0965 9.476 78.2925 9.868V8.72H80.1685V16H78.3345V14.81C78.1385 15.2207 77.8585 15.552 77.4945 15.804C77.1398 16.056 76.6358 16.182 75.9825 16.182ZM76.2905 14.474C76.7105 14.474 77.0698 14.3807 77.3685 14.194C77.6765 13.998 77.9145 13.7413 78.0825 13.424C78.2505 13.1067 78.3345 12.7613 78.3345 12.388C78.3345 12.0053 78.2505 11.6553 78.0825 11.338C77.9145 11.0207 77.6765 10.764 77.3685 10.568C77.0698 10.372 76.7105 10.274 76.2905 10.274C75.8892 10.274 75.5345 10.372 75.2265 10.568C74.9278 10.7547 74.6945 11.0067 74.5265 11.324C74.3585 11.6413 74.2745 11.9913 74.2745 12.374C74.2745 12.738 74.3585 13.0833 74.5265 13.41C74.6945 13.7273 74.9278 13.984 75.2265 14.18C75.5345 14.376 75.8892 14.474 76.2905 14.474ZM81.2914 16V8.72H83.1254V10.106C83.2468 9.58333 83.4941 9.18667 83.8674 8.916C84.2408 8.636 84.7448 8.51467 85.3794 8.552V10.33H85.1134C84.5721 10.33 84.1148 10.5027 83.7414 10.848C83.3681 11.1933 83.1814 11.6693 83.1814 12.276V16H81.2914Z" fill="#2D5D5E"/>
</svg>
